# xmcd
#
# Track frame offsets:
# 150
# 36379
# 63767
# 98178
# 112780
# 140739
# 160911
#
# Disc length: 2605 seconds
#
# Revision: 0
# Processed by: cddbd v1.4PL0 Copyright (c) Steve Scherf et al.
# Submitted via: Audion 3.0.2 (http://www.panic.com/audion/)
#
DISCID=580a2b07
DTITLE=Radio Diaries - New York Works
DYEAR=1900
DGENRE=
TTITLE0=Walter Backerman, Seltzer Man
TTITLE1=Charlie Zimmerman, Water Tank Builder
TTITLE2=Selma Koch, Bra Fitter
TTITLE3=Frank Schubert, Lighthouse Keeper
TTITLE4=Pasquale Spensieri, Grinder
TTITLE5=Cali Rivera, Cowbell Maker
TTITLE6=Frank Sabatino, Fisherman
EXTD=
EXTT0=
EXTT1=
EXTT2=
EXTT3=
EXTT4=
EXTT5=
EXTT6=
PLAYORDER=
